<?xml version="1.0" encoding="utf-8"?>
<!-- Generator: Adobe Illustrator 24.0.1, SVG Export Plug-In . SVG Version: 6.00 Build 0)  -->
<svg version="1.1" id="Layer_1" xmlns="http://www.w3.org/2000/svg" xmlns:xlink="http://www.w3.org/1999/xlink" x="0px" y="0px"
	 viewBox="0 0 46.7 46.7" style="enable-background:new 0 0 46.7 46.7;" xml:space="preserve">
<style type="text/css">
	.st0{fill:url(#패스_54_1_);}
	.st1{fill:url(#패스_55_1_);}
	.st2{fill:url(#패스_56_1_);}
</style>
<g id="그룹_19" transform="translate(61.605 44.138)">
	<g id="그룹_18" transform="translate(13.112)">
		
			<linearGradient id="패스_54_1_" gradientUnits="userSpaceOnUse" x1="-189.1837" y1="354.3857" x2="-189.3477" y2="351.4897" gradientTransform="matrix(20.2629 0 0 -16.9327 3783.3564 5948.1929)">
			<stop  offset="0" style="stop-color:#DA4D57"/>
			<stop  offset="1" style="stop-color:#C72B4A"/>
		</linearGradient>
		<path id="패스_54" class="st0" d="M-41.2-33c-1.3,0.3-2.5,0.8-3.6,1.5l-0.1,0.1c-0.5,0.3-1,0.7-1.3,0.9l-0.2,0.1
			c-0.4,0.4-0.9,0.8-1.4,1.2l-0.1,0.1c-0.5,0.6-1.2,1-1.9,1.4c-0.5,0.2-1,0.4-1.5,0.4c-0.8,0.1-1.6-0.1-2.3-0.4
			c-0.7-0.4-1.4-1-1.9-1.6c-0.8-0.9-1.8-1.7-2.8-2.3l-0.4-0.2c-0.2-0.1-0.4-0.2-0.6-0.3l-0.1-0.1c-0.6-0.3-1.3-0.5-2-0.7
			c-0.7-5.6,3.3-10.6,8.9-11.3s10.6,3.3,11.3,8.9C-41.2-34.5-41.2-33.8-41.2-33L-41.2-33z"/>
		
			<linearGradient id="패스_55_1_" gradientUnits="userSpaceOnUse" x1="-189.095" y1="355.6625" x2="-189.259" y2="352.6965" gradientTransform="matrix(20.2611 0 0 -16.5154 3782.8501 5821.5176)">
			<stop  offset="0" style="stop-color:#DA4D57"/>
			<stop  offset="1" style="stop-color:#C72B4A"/>
		</linearGradient>
		<path id="패스_55" class="st1" d="M-61.6-8.6c1.5-0.4,2.9-1,4.2-1.9c0.6-0.4,1.1-0.8,1.6-1.3c0.1-0.1,0.3-0.3,0.4-0.4
			c0.5-0.4,1.1-0.8,1.6-1.2c1.2-0.7,2.7-0.8,4-0.3l0.2,0.1c0.1,0.1,0.2,0.1,0.3,0.2c0.1,0.1,0.3,0.2,0.6,0.4
			c0.3,0.2,0.5,0.4,0.8,0.6l0.1,0.1c1.5,1.3,3.2,2.3,5.1,3.1c0.4,0.1,0.7,0.2,1.1,0.4c0.1,1.2,0.1,2.4-0.2,3.6
			c-1.3,5.4-6.8,8.8-12.2,7.5C-58.8,1-62-3.6-61.6-8.6L-61.6-8.6z"/>
	</g>
	
		<linearGradient id="패스_56_1_" gradientUnits="userSpaceOnUse" x1="-179.4668" y1="358.7109" x2="-179.5379" y2="356.3139" gradientTransform="matrix(46.676 0 0 -20.4417 8340.6553 7280.2236)">
		<stop  offset="0" style="stop-color:#DA4D57"/>
		<stop  offset="1" style="stop-color:#C72B4A"/>
	</linearGradient>
	<path id="패스_56" class="st2" d="M-22.7-11c-2,0.5-4,0.3-5.9-0.4c-1.6-0.7-3.1-1.6-4.4-2.7l-0.1-0.1c-0.3-0.2-0.5-0.4-0.8-0.6
		c-0.4-0.3-0.7-0.5-0.8-0.5c-0.2-0.1-0.4-0.2-0.6-0.3l-0.2-0.1c-2-0.9-4.3-0.7-6.2,0.4c-0.7,0.4-1.3,0.9-1.9,1.4
		c-0.2,0.1-0.3,0.3-0.5,0.4c-0.4,0.4-0.9,0.8-1.4,1.1c-4.6,3.2-10.9,2.1-14.1-2.4c-3.2-4.6-2.1-10.9,2.4-14.1
		c2.9-2.1,6.8-2.4,10.1-0.9l0.1,0c0.2,0.1,0.3,0.2,0.5,0.3l0.3,0.2c0.8,0.5,1.6,1.1,2.3,1.9c0.7,0.8,1.6,1.5,2.6,2.1
		c1.1,0.5,2.4,0.8,3.6,0.7c0.8-0.1,1.6-0.3,2.3-0.6c0.9-0.5,1.8-1.1,2.5-1.9l0,0c0.5-0.4,0.9-0.8,1.3-1.1l0.1-0.1
		c0.3-0.3,0.7-0.5,1.1-0.8l0,0c4.7-3,11-1.5,14,3.2c3,4.7,1.5,11-3.2,14C-20.6-11.7-21.6-11.3-22.7-11L-22.7-11z"/>
</g>
</svg>
